<svg id='Squiggle-svg' xmlns='http://www.w3.org/2000/svg' xmlns:xlink='http://www.w3.org/1999/xlink' xmlns:ev='http://www.w3.org/2001/xml-events'><style type='text/css'>.st0{animation:shift .3s linear infinite;}@keyframes shift {from {transform:translateX(0);}to {transform:translateX(-50%);}}</style>
<path fill='none' stroke='#2033FF' stroke-width='1' class='st0' d="M0,3.5 C5,3.5 5,0.5 10,0.5 C15,0.5 15,3.5 20,3.5 C25,3.5 25,0.5 30,0.5 C35,0.5 35,3.5 40,3.5" id="Shape"></path>
<path fill='none' stroke='#2033FF' stroke-width='1' class='st0' d="M40,3.5 C45,3.5 45,0.5 50,0.5 C55,0.5 55,3.5 60,3.5 C65,3.5 65,0.5 70,0.5 C75,0.5 75,3.5 80,3.5" id="Shape"></path>
<path fill='none' stroke='#2033FF' stroke-width='1' class='st0' d="M80,3.5 C85,3.5 85,0.5 90,0.5 C95,0.5 95,3.5 100,3.5 C105,3.5 105,0.5 110,0.5 C115,0.5 115,3.5 120,3.5" id="Shape"></path>
<path fill='none' stroke='#2033FF' stroke-width='1' class='st0' d="M120,3.5 C125,3.5 125,0.5 130,0.5 C135,0.5 135,3.5 140,3.5 C145,3.5 145,0.5 150,0.5 C155,0.5 155,3.5 160,3.5" id="Shape"></path>
<path fill='none' stroke='#2033FF' stroke-width='1' class='st0' d="M160,3.5 C165,3.5 165,0.5 170,0.5 C175,0.5 175,3.5 180,3.5 C185,3.5 185,0.5 190,0.5 C195,0.5 195,3.5 200,3.5" id="Shape"></path>
<path fill='none' stroke='#2033FF' stroke-width='1' class='st0' d="M200,3.5 C205,3.5 205,0.5 210,0.5 C215,0.5 215,3.5 220,3.5 C225,3.5 225,0.5 230,0.5 C235,0.5 235,3.5 240,3.5" id="Shape"></path>
<path fill='none' stroke='#2033FF' stroke-width='1' class='st0' d="M240,3.5 C245,3.5 245,0.5 250,0.5 C255,0.5 255,3.5 260,3.5 C265,3.5 265,0.5 270,0.5 C275,0.5 275,3.5 280,3.5" id="Shape"></path>
<path fill='none' stroke='#2033FF' stroke-width='1' class='st0' d="M280,3.5 C285,3.5 285,0.5 290,0.5 C295,0.5 295,3.5 300,3.5 C305,3.5 305,0.5 310,0.5 C315,0.5 315,3.5 320,3.5" id="Shape"></path>


</svg>
