<?xml version="1.0" encoding="UTF-8" standalone="no"?>
<svg width="280px" height="5px" viewBox="0 0 280 5" version="1.1" xmlns="http://www.w3.org/2000/svg" xmlns:xlink="http://www.w3.org/1999/xlink">
    <g id="my-site" stroke="none" stroke-width="1" fill="none" fill-rule="evenodd">
        <g id="Desktop-HD" transform="translate(-208.000000, -1215.000000)" stroke="#2033FF">
            <g id="Group" transform="translate(208.000000, 1216.000000)">
                <path d="M0,3 C5,3 5,0 10,0 C15,0 15,3 20,3 C25,3 25,0 30,0 C35,0 35,3 40,3" id="Shape"></path>
                <path d="M40,3 C45,3 45,0 50,0 C55,0 55,3 60,3 C65,3 65,0 70,0 C75,0 75,3 80,3" id="Shape"></path>
                <path d="M80,3 C85,3 85,0 90,0 C95,0 95,3 100,3 C105,3 105,0 110,0 C115,0 115,3 120,3" id="Shape"></path>
                <path d="M120,3 C125,3 125,0 130,0 C135,0 135,3 140,3 C145,3 145,0 150,0 C155,0 155,3 160,3" id="Shape"></path>
                <path d="M160,3 C165,3 165,0 170,0 C175,0 175,3 180,3 C185,3 185,0 190,0 C195,0 195,3 200,3" id="Shape"></path>
                <path d="M200,3 C205,3 205,0 210,0 C215,0 215,3 220,3 C225,3 225,0 230,0 C235,0 235,3 240,3" id="Shape"></path>
                <path d="M240,3 C245,3 245,0 250,0 C255,0 255,3 260,3 C265,3 265,0 270,0 C275,0 275,3 280,3" id="Shape"></path>
            </g>
        </g>
    </g>
</svg>
